<svg xmlns="http://www.w3.org/2000/svg" xmlns:xlink="http://www.w3.org/1999/xlink" width="500" zoomAndPan="magnify" viewBox="0 0 375 374.999991" height="500" preserveAspectRatio="xMidYMid meet" version="1.0"><defs><g/><clipPath id="350993c9ac"><path d="M 4.4375 4.4375 L 370.5625 4.4375 L 370.5625 370.5625 L 4.4375 370.5625 Z M 4.4375 4.4375 " clip-rule="nonzero"/></clipPath><clipPath id="2f0afa13c1"><path d="M 187.5 4.4375 C 86.398438 4.4375 4.4375 86.398438 4.4375 187.5 C 4.4375 288.601562 86.398438 370.5625 187.5 370.5625 C 288.601562 370.5625 370.5625 288.601562 370.5625 187.5 C 370.5625 86.398438 288.601562 4.4375 187.5 4.4375 Z M 187.5 4.4375 " clip-rule="nonzero"/></clipPath></defs><g clip-path="url(#350993c9ac)"><g clip-path="url(#2f0afa13c1)"><path fill="#ffffff" d="M 4.4375 4.4375 L 370.5625 4.4375 L 370.5625 370.5625 L 4.4375 370.5625 Z M 4.4375 4.4375 " fill-opacity="1" fill-rule="nonzero"/></g></g><g fill="#003357" fill-opacity="1"><g transform="translate(152.052549, 354.326311)"><g><path d="M 179.523438 -201.464844 L 117.6875 -55.566406 L 106.574219 -28.496094 L 33.339844 -201.464844 L 9.972656 -201.464844 L 94.890625 0 L 97.171875 0 L 167.554688 -166.699219 L 182.371094 -201.464844 Z M 179.523438 -201.464844 "/></g></g></g><g fill="#003357" fill-opacity="1"><g transform="translate(53.052456, 258.630569)"><g><path d="M 31.902344 -134.152344 C 40.445312 -100.542969 74.054688 -102.253906 91.429688 -83.453125 L 91.429688 -105.957031 C 51.839844 -105.957031 31.902344 -113.929688 31.902344 -152.953125 L 31.902344 -199.09375 L 54.972656 -199.09375 C 90.289062 -199.09375 105.101562 -197.671875 125.039062 -178.300781 L 125.039062 -201.089844 L 9.96875 -201.089844 L 9.96875 0 L 31.902344 0 Z M 31.902344 -134.152344 "/></g></g></g></svg>