<svg xmlns="http://www.w3.org/2000/svg" xmlns:xlink="http://www.w3.org/1999/xlink" width="500" zoomAndPan="magnify" viewBox="0 0 375 374.999991" height="500" preserveAspectRatio="xMidYMid meet" version="1.0"><defs><g/><clipPath id="10c80cde1e"><path d="M 4.4375 8.878906 L 370.5625 8.878906 L 370.5625 375 L 4.4375 375 Z M 4.4375 8.878906 " clip-rule="nonzero"/></clipPath><clipPath id="07617a340b"><path d="M 187.5 8.878906 C 86.398438 8.878906 4.4375 90.835938 4.4375 191.9375 C 4.4375 293.039062 86.398438 375 187.5 375 C 288.601562 375 370.5625 293.039062 370.5625 191.9375 C 370.5625 90.835938 288.601562 8.878906 187.5 8.878906 Z M 187.5 8.878906 " clip-rule="nonzero"/></clipPath></defs><g clip-path="url(#10c80cde1e)"><g clip-path="url(#07617a340b)"><path fill="#ffffff" d="M 4.4375 8.878906 L 370.5625 8.878906 L 370.5625 375 L 4.4375 375 Z M 4.4375 8.878906 " fill-opacity="1" fill-rule="nonzero"/></g></g><g fill="#003357" fill-opacity="1"><g transform="translate(24.178285, 251.945737)"><g><path d="M 36.789062 -154.710938 C 46.644531 -115.949219 85.402344 -117.921875 105.4375 -96.242188 L 105.4375 -122.191406 C 59.78125 -122.191406 36.789062 -131.390625 36.789062 -176.390625 L 36.789062 -229.601562 L 63.394531 -229.601562 C 104.125 -229.601562 121.207031 -227.960938 144.199219 -205.625 L 144.199219 -231.902344 L 11.496094 -231.902344 L 11.496094 0 L 36.789062 0 Z M 36.789062 -154.710938 "/></g></g></g><g fill="#003357" fill-opacity="1"><g transform="translate(138.348291, 362.305078)"><g><path d="M 207.03125 -232.335938 L 135.71875 -64.082031 L 122.90625 -32.863281 L 38.449219 -232.335938 L 11.5 -232.335938 L 109.429688 0 L 112.058594 0 L 193.230469 -192.242188 L 210.316406 -232.335938 Z M 207.03125 -232.335938 "/></g></g></g></svg>