<svg xmlns="http://www.w3.org/2000/svg" xmlns:xlink="http://www.w3.org/1999/xlink" width="920" zoomAndPan="magnify" viewBox="0 0 690 195.000001" height="260" preserveAspectRatio="xMidYMid meet" version="1.0"><defs><g/></defs><g fill="#003357" fill-opacity="1"><g transform="translate(270.877798, 142.101149)"><g><path d="M 10.21875 -26.09375 C 13.09375 -26.09375 15.359375 -25.582031 17.015625 -24.5625 C 18.679688 -23.550781 19.515625 -21.75 19.515625 -19.15625 C 19.515625 -16.507812 18.644531 -14.675781 16.90625 -13.65625 C 15.175781 -12.644531 12.875 -12.140625 10 -12.140625 L 5.78125 -12.140625 L 5.78125 0 L 3.15625 0 L 3.15625 -26.09375 Z M 10.109375 -14.6875 C 11.515625 -14.6875 12.703125 -14.8125 13.671875 -15.0625 C 14.640625 -15.320312 15.398438 -15.773438 15.953125 -16.421875 C 16.515625 -17.078125 16.796875 -17.988281 16.796875 -19.15625 C 16.796875 -20.800781 16.226562 -21.941406 15.09375 -22.578125 C 13.96875 -23.222656 12.398438 -23.546875 10.390625 -23.546875 L 5.78125 -23.546875 L 5.78125 -14.6875 Z M 10.109375 -14.6875 "/></g></g></g><g fill="#003357" fill-opacity="1"><g transform="translate(306.204304, 142.101149)"><g><path d="M 8.796875 0.65625 C 7.046875 0.65625 5.539062 0.195312 4.28125 -0.71875 C 3.03125 -1.644531 1.90625 -3.03125 0.90625 -4.875 L 3.125 -6.21875 C 3.894531 -4.789062 4.738281 -3.710938 5.65625 -2.984375 C 6.582031 -2.253906 7.554688 -1.890625 8.578125 -1.890625 C 9.472656 -1.890625 10.289062 -2.085938 11.03125 -2.484375 C 11.769531 -2.890625 12.347656 -3.429688 12.765625 -4.109375 C 13.191406 -4.785156 13.40625 -5.523438 13.40625 -6.328125 C 13.40625 -7.117188 13.179688 -7.859375 12.734375 -8.546875 C 12.285156 -9.242188 11.632812 -9.960938 10.78125 -10.703125 C 9.9375 -11.441406 8.460938 -12.660156 6.359375 -14.359375 C 5.410156 -15.109375 4.675781 -15.773438 4.15625 -16.359375 C 3.632812 -16.941406 3.238281 -17.5625 2.96875 -18.21875 C 2.707031 -18.882812 2.578125 -19.691406 2.578125 -20.640625 C 2.578125 -21.804688 2.851562 -22.851562 3.40625 -23.78125 C 3.96875 -24.71875 4.734375 -25.445312 5.703125 -25.96875 C 6.671875 -26.488281 7.738281 -26.75 8.90625 -26.75 C 10.351562 -26.75 11.601562 -26.378906 12.65625 -25.640625 C 13.71875 -24.898438 14.742188 -23.851562 15.734375 -22.5 L 13.625 -20.859375 C 13.070312 -21.585938 12.578125 -22.171875 12.140625 -22.609375 C 11.703125 -23.046875 11.207031 -23.394531 10.65625 -23.65625 C 10.113281 -23.925781 9.503906 -24.0625 8.828125 -24.0625 C 8.097656 -24.0625 7.46875 -23.910156 6.9375 -23.609375 C 6.40625 -23.304688 6 -22.898438 5.71875 -22.390625 C 5.445312 -21.878906 5.3125 -21.332031 5.3125 -20.75 C 5.3125 -19.925781 5.550781 -19.15625 6.03125 -18.4375 C 6.519531 -17.726562 7.222656 -17.035156 8.140625 -16.359375 C 10.078125 -14.953125 11.570312 -13.785156 12.625 -12.859375 C 13.675781 -11.941406 14.523438 -10.945312 15.171875 -9.875 C 15.816406 -8.8125 16.140625 -7.640625 16.140625 -6.359375 C 16.140625 -5.148438 15.816406 -4.003906 15.171875 -2.921875 C 14.523438 -1.847656 13.644531 -0.984375 12.53125 -0.328125 C 11.414062 0.328125 10.171875 0.65625 8.796875 0.65625 Z M 8.796875 0.65625 "/></g></g></g><g fill="#003357" fill-opacity="1"><g transform="translate(338.623529, 142.101149)"><g><path d="M 3.15625 -26.09375 L 5.78125 -26.09375 L 5.78125 0 L 3.15625 0 Z M 3.15625 -26.09375 "/></g></g></g><g fill="#003357" fill-opacity="1"><g transform="translate(362.248219, 142.101149)"><g><path d="M 29.546875 -13.046875 C 29.546875 -11.015625 29.148438 -9.117188 28.359375 -7.359375 C 27.578125 -5.597656 26.472656 -4.078125 25.046875 -2.796875 L 28.890625 2.078125 L 25.6875 2.078125 L 23.046875 -1.3125 C 20.816406 0 18.40625 0.65625 15.8125 0.65625 C 13.195312 0.65625 10.835938 0.0390625 8.734375 -1.1875 C 6.640625 -2.425781 5 -4.085938 3.8125 -6.171875 C 2.625 -8.253906 2.03125 -10.507812 2.03125 -12.9375 C 2.03125 -15.476562 2.632812 -17.800781 3.84375 -19.90625 C 5.0625 -22.019531 6.707031 -23.6875 8.78125 -24.90625 C 10.851562 -26.132812 13.125 -26.75 15.59375 -26.75 C 18.1875 -26.75 20.546875 -26.148438 22.671875 -24.953125 C 24.804688 -23.753906 26.484375 -22.101562 27.703125 -20 C 28.929688 -17.90625 29.546875 -15.585938 29.546875 -13.046875 Z M 15.734375 -1.890625 C 17.742188 -1.890625 19.632812 -2.382812 21.40625 -3.375 L 15.5625 -10.796875 L 18.75 -10.796875 L 23.40625 -4.90625 C 24.46875 -5.894531 25.300781 -7.09375 25.90625 -8.5 C 26.519531 -9.90625 26.828125 -11.429688 26.828125 -13.078125 C 26.828125 -15.210938 26.3125 -17.128906 25.28125 -18.828125 C 24.25 -20.523438 22.882812 -21.84375 21.1875 -22.78125 C 19.488281 -23.726562 17.671875 -24.203125 15.734375 -24.203125 C 13.816406 -24.203125 12.015625 -23.722656 10.328125 -22.765625 C 8.648438 -21.804688 7.300781 -20.46875 6.28125 -18.75 C 5.269531 -17.03125 4.765625 -15.09375 4.765625 -12.9375 C 4.765625 -10.851562 5.265625 -8.96875 6.265625 -7.28125 C 7.273438 -5.601562 8.613281 -4.285156 10.28125 -3.328125 C 11.957031 -2.367188 13.773438 -1.890625 15.734375 -1.890625 Z M 15.734375 -1.890625 "/></g></g></g><g fill="#003357" fill-opacity="1"><g transform="translate(408.549713, 142.101149)"><g><path d="M 11.921875 0.65625 C 10.148438 0.65625 8.613281 0.269531 7.3125 -0.5 C 6.019531 -1.28125 5.019531 -2.398438 4.3125 -3.859375 C 3.613281 -5.328125 3.265625 -7.082031 3.265625 -9.125 L 3.265625 -26.09375 L 5.890625 -26.09375 L 5.890625 -8.609375 C 5.890625 -7.304688 6.113281 -6.148438 6.5625 -5.140625 C 7.007812 -4.140625 7.6875 -3.347656 8.59375 -2.765625 C 9.5 -2.179688 10.609375 -1.890625 11.921875 -1.890625 C 13.253906 -1.890625 14.367188 -2.179688 15.265625 -2.765625 C 16.160156 -3.347656 16.832031 -4.140625 17.28125 -5.140625 C 17.726562 -6.148438 17.953125 -7.269531 17.953125 -8.5 L 17.953125 -26.09375 L 20.578125 -26.09375 L 20.578125 -9.125 C 20.578125 -7.082031 20.222656 -5.328125 19.515625 -3.859375 C 18.816406 -2.398438 17.816406 -1.28125 16.515625 -0.5 C 15.222656 0.269531 13.691406 0.65625 11.921875 0.65625 Z M 11.921875 0.65625 "/></g></g></g><g fill="#003357" fill-opacity="1"><g transform="translate(447.074218, 142.101149)"><g><path d="M 3.15625 -26.09375 L 5.78125 -26.09375 L 5.78125 0 L 3.15625 0 Z M 3.15625 -26.09375 "/></g></g></g><g fill="#003357" fill-opacity="1"><g transform="translate(470.698915, 142.101149)"><g><path d="M 22.34375 0 L 18.359375 -8.578125 L 6.90625 -8.578125 L 2.90625 0 L 0.1875 0 L 12.359375 -26.09375 L 12.96875 -26.09375 L 25.078125 0 Z M 8.0625 -11.046875 L 17.1875 -11.046875 L 12.640625 -20.828125 Z M 8.0625 -11.046875 "/></g></g></g><g fill="#003357" fill-opacity="1"><g transform="translate(510.677079, 142.101149)"><g><path d="M 6.46875 -23.546875 L 0.578125 -23.546875 L 0.578125 -26.09375 L 14.90625 -26.09375 L 14.90625 -23.546875 L 9.09375 -23.546875 L 9.09375 0 L 6.46875 0 Z M 6.46875 -23.546875 "/></g></g></g><g fill="#003357" fill-opacity="1"><g transform="translate(540.879501, 142.101149)"><g><path d="M 10.609375 -26.09375 C 13.585938 -26.09375 15.816406 -25.472656 17.296875 -24.234375 C 18.773438 -23.003906 19.515625 -21.3125 19.515625 -19.15625 C 19.515625 -17.601562 19.140625 -16.304688 18.390625 -15.265625 C 17.640625 -14.222656 16.582031 -13.441406 15.21875 -12.921875 C 13.863281 -12.398438 12.28125 -12.140625 10.46875 -12.140625 L 19.875 0 L 16.640625 0 L 7.421875 -12.140625 L 5.78125 -12.140625 L 5.78125 0 L 3.15625 0 L 3.15625 -26.09375 Z M 10.46875 -14.6875 C 12.476562 -14.6875 14.035156 -15.046875 15.140625 -15.765625 C 16.242188 -16.492188 16.796875 -17.625 16.796875 -19.15625 C 16.796875 -20.488281 16.320312 -21.550781 15.375 -22.34375 C 14.425781 -23.144531 13.007812 -23.546875 11.125 -23.546875 L 5.78125 -23.546875 L 5.78125 -14.6875 Z M 10.46875 -14.6875 "/></g></g></g><g fill="#003357" fill-opacity="1"><g transform="translate(577.114525, 142.101149)"><g><path d="M 22.34375 0 L 18.359375 -8.578125 L 6.90625 -8.578125 L 2.90625 0 L 0.1875 0 L 12.359375 -26.09375 L 12.96875 -26.09375 L 25.078125 0 Z M 8.0625 -11.046875 L 17.1875 -11.046875 L 12.640625 -20.828125 Z M 8.0625 -11.046875 "/></g></g></g><g fill="#003357" fill-opacity="1"><g transform="translate(29.834978, 134.094839)"><g><path d="M 17.792969 -74.824219 C 22.558594 -56.078125 41.304688 -57.03125 50.996094 -46.546875 L 50.996094 -59.097656 C 28.914062 -59.097656 17.792969 -63.542969 17.792969 -85.308594 L 17.792969 -111.042969 L 30.660156 -111.042969 C 50.359375 -111.042969 58.621094 -110.25 69.738281 -99.445312 L 69.738281 -112.15625 L 5.558594 -112.15625 L 5.558594 0 L 17.792969 0 Z M 17.792969 -74.824219 "/></g></g></g><g fill="#003357" fill-opacity="1"><g transform="translate(85.051551, 187.468448)"><g><path d="M 100.128906 -112.367188 L 65.640625 -30.992188 L 59.441406 -15.894531 L 18.59375 -112.367188 L 5.5625 -112.367188 L 52.925781 0 L 54.195312 0 L 93.453125 -92.976562 L 101.71875 -112.367188 Z M 100.128906 -112.367188 "/></g></g></g><g fill="#003357" fill-opacity="1"><g transform="translate(210.19823, 84.822336)"><g><path d="M 4.25 -37.25 L 22.71875 -37.25 L 22.71875 -30.296875 L 11.15625 -30.296875 L 11.15625 -23.65625 L 22.71875 -23.65625 L 22.71875 -16.703125 L 11.15625 -16.703125 L 11.15625 0 L 4.25 0 Z M 4.25 -37.25 "/></g></g></g><g fill="#003357" fill-opacity="1"><g transform="translate(245.317761, 84.822336)"><g><path d="M 4.25 -37.25 L 11.359375 -37.25 L 11.359375 0 L 4.25 0 Z M 4.25 -37.25 "/></g></g></g><g fill="#003357" fill-opacity="1"><g transform="translate(271.308031, 84.822336)"><g><path d="M 11.359375 -37.25 L 11.359375 -6.75 L 21.6875 -6.75 L 21.6875 0 L 4.25 0 L 4.25 -37.25 Z M 11.359375 -37.25 "/></g></g></g><g fill="#003357" fill-opacity="1"><g transform="translate(304.508343, 84.822336)"><g><path d="M 4.25 -37.25 L 11.359375 -37.25 L 11.359375 0 L 4.25 0 Z M 4.25 -37.25 "/></g></g></g><g fill="#003357" fill-opacity="1"><g transform="translate(330.498614, 84.822336)"><g><path d="M 13.59375 -37.25 C 17.707031 -37.25 20.878906 -36.363281 23.109375 -34.59375 C 25.335938 -32.832031 26.453125 -30.117188 26.453125 -26.453125 C 26.453125 -24.203125 25.925781 -22.273438 24.875 -20.671875 C 23.820312 -19.066406 22.34375 -17.847656 20.4375 -17.015625 C 18.53125 -16.179688 16.351562 -15.765625 13.90625 -15.765625 L 11.359375 -15.765625 L 11.359375 0 L 4.25 0 L 4.25 -37.25 Z M 14.6875 -22.671875 C 17.894531 -22.671875 19.5 -23.929688 19.5 -26.453125 C 19.5 -27.703125 19.066406 -28.65625 18.203125 -29.3125 C 17.335938 -29.96875 16.0625 -30.296875 14.375 -30.296875 L 11.359375 -30.296875 L 11.359375 -22.671875 Z M 14.6875 -22.671875 "/></g></g></g><g fill="#003357" fill-opacity="1"><g transform="translate(368.886001, 84.822336)"><g><path d="M 4.25 -37.25 L 24.59375 -37.25 L 24.59375 -30.34375 L 11.359375 -30.34375 L 11.359375 -23.546875 L 24.59375 -23.546875 L 24.59375 -16.8125 L 11.359375 -16.8125 L 11.359375 -6.953125 L 24.59375 -6.953125 L 24.59375 0 L 4.25 0 Z M 4.25 -37.25 "/></g></g></g><g fill="#003357" fill-opacity="1"><g transform="translate(406.184096, 84.822336)"><g/></g></g><g fill="#003357" fill-opacity="1"><g transform="translate(431.085084, 84.822336)"><g><path d="M 1.40625 -37.25 L 8.71875 -37.25 L 18.046875 -10.796875 L 27.59375 -37.25 L 34.859375 -37.25 L 21.421875 0 L 14.625 0 Z M 1.40625 -37.25 "/></g></g></g><g fill="#003357" fill-opacity="1"><g transform="translate(477.771796, 84.822336)"><g><path d="M 4.25 -37.25 L 11.359375 -37.25 L 11.359375 0 L 4.25 0 Z M 4.25 -37.25 "/></g></g></g><g fill="#003357" fill-opacity="1"><g transform="translate(503.762054, 84.822336)"><g><path d="M 13.234375 -37.25 C 20.003906 -37.25 25.128906 -35.691406 28.609375 -32.578125 C 32.085938 -29.460938 33.828125 -24.828125 33.828125 -18.671875 C 33.828125 -12.140625 32.085938 -7.394531 28.609375 -4.4375 C 25.128906 -1.476562 20.035156 0 13.328125 0 L 4.25 0 L 4.25 -37.25 Z M 14.578125 -6.953125 C 18.484375 -6.953125 21.472656 -7.921875 23.546875 -9.859375 C 25.617188 -11.796875 26.65625 -14.785156 26.65625 -18.828125 C 26.65625 -21.285156 26.132812 -23.367188 25.09375 -25.078125 C 24.0625 -26.796875 22.578125 -28.09375 20.640625 -28.96875 C 18.703125 -29.851562 16.40625 -30.296875 13.75 -30.296875 L 11.359375 -30.296875 L 11.359375 -6.953125 Z M 14.578125 -6.953125 "/></g></g></g><g fill="#003357" fill-opacity="1"><g transform="translate(550.345019, 84.822336)"><g><path d="M 4.25 -37.25 L 11.359375 -37.25 L 11.359375 0 L 4.25 0 Z M 4.25 -37.25 "/></g></g></g><g fill="#003357" fill-opacity="1"><g transform="translate(576.3353, 84.822336)"><g><path d="M 22.15625 0.9375 C 18.3125 0.9375 14.894531 0.0976562 11.90625 -1.578125 C 8.914062 -3.253906 6.585938 -5.578125 4.921875 -8.546875 C 3.265625 -11.523438 2.4375 -14.898438 2.4375 -18.671875 C 2.4375 -22.472656 3.332031 -25.859375 5.125 -28.828125 C 6.925781 -31.804688 9.335938 -34.109375 12.359375 -35.734375 C 15.390625 -37.367188 18.6875 -38.1875 22.25 -38.1875 C 25.289062 -38.1875 28.222656 -37.535156 31.046875 -36.234375 C 33.867188 -34.941406 36.28125 -33.097656 38.28125 -30.703125 L 33.296875 -25.9375 C 31.609375 -27.738281 29.847656 -29.097656 28.015625 -30.015625 C 26.179688 -30.929688 24.207031 -31.390625 22.09375 -31.390625 C 19.78125 -31.390625 17.65625 -30.832031 15.71875 -29.71875 C 13.78125 -28.613281 12.238281 -27.09375 11.09375 -25.15625 C 9.957031 -23.21875 9.390625 -21.054688 9.390625 -18.671875 C 9.390625 -16.148438 9.941406 -13.921875 11.046875 -11.984375 C 12.148438 -10.046875 13.679688 -8.539062 15.640625 -7.46875 C 17.597656 -6.394531 19.800781 -5.859375 22.25 -5.859375 C 24.46875 -5.859375 26.429688 -6.289062 28.140625 -7.15625 C 29.847656 -8.019531 31.640625 -9.382812 33.515625 -11.25 L 38.328125 -6.21875 C 36.597656 -4.53125 34.945312 -3.175781 33.375 -2.15625 C 31.800781 -1.132812 30.109375 -0.363281 28.296875 0.15625 C 26.484375 0.675781 24.4375 0.9375 22.15625 0.9375 Z M 22.15625 0.9375 "/></g></g></g><g fill="#003357" fill-opacity="1"><g transform="translate(627.171645, 84.822336)"><g><path d="M 28.53125 0 L 25.671875 -7.671875 L 10.21875 -7.671875 L 7.359375 0 L 0 0 L 14.375 -37.25 L 21.53125 -37.25 L 35.890625 0 Z M 12.859375 -14.625 L 23.078125 -14.625 L 17.953125 -28.328125 Z M 12.859375 -14.625 "/></g></g></g></svg>